<svg xmlns="http://www.w3.org/2000/svg" version="1.1" xmlns:xlink="http://www.w3.org/1999/xlink" xmlns:svgjs="http://svgjs.dev/svgjs" width="200" height="200" viewBox="0 0 2000 2000"><g transform="matrix(1,0,0,1,0.8898809523811906,0.8898809523808495)"><svg viewBox="0 0 336 336" data-background-color="#ffffff" preserveAspectRatio="xMidYMid meet" height="2000" width="2000" xmlns="http://www.w3.org/2000/svg" xmlns:xlink="http://www.w3.org/1999/xlink"><g id="tight-bounds" transform="matrix(1,0,0,1,-0.1495000000000175,-0.14949999999998909)"><svg viewBox="0 0 336.29894817816745 336.29894817816745" height="336.29894817816745" width="336.29894817816745"><rect width="336.299" height="336.299" fill="url(#0ca58aaf-e82a-467e-b86b-eba840c78e7a)" mask="url(#74f7f63a-3b9a-4d01-8e7e-ea3bebaa1143)" data-fill-palette-color="tertiary"></rect><g><svg></svg></g><g><svg viewBox="0 0 336.29894817816745 336.29894817816745" height="336.29894817816745" width="336.29894817816745"><g><path d="M0 168.149c0-92.866 75.283-168.149 168.149-168.149 92.866 0 168.149 75.283 168.15 168.149 0 92.866-75.283 168.149-168.15 168.15-92.866 0-168.149-75.283-168.149-168.15zM168.149 319.024c83.326 0 150.875-67.549 150.875-150.875 0-83.326-67.549-150.875-150.875-150.874-83.326 0-150.875 67.549-150.874 150.874 0 83.326 67.549 150.875 150.874 150.875z" data-fill-palette-color="tertiary" fill="url(#0ca58aaf-e82a-467e-b86b-eba840c78e7a)" stroke="transparent"></path><ellipse rx="161.42349512552036" ry="161.42349512552036" cx="168.14947408908372" cy="168.14947408908372" fill="url(#0ca58aaf-e82a-467e-b86b-eba840c78e7a)" stroke="transparent" stroke-width="0" fill-opacity="1" data-fill-palette-color="tertiary"></ellipse></g><g transform="matrix(1,0,0,1,63.88695107830249,72.37025347550517)"><svg viewBox="0 0 208.52504602156247 191.55844122715712" height="191.55844122715712" width="208.52504602156247"><g><svg viewBox="0 0 208.52504602156247 191.55844122715712" height="191.55844122715712" width="208.52504602156247"><g><svg viewBox="0 0 208.52504602156247 191.55844122715712" height="191.55844122715712" width="208.52504602156247"><g id="textblocktransform"><svg viewBox="0 0 208.52504602156247 191.55844122715712" height="191.55844122715712" width="208.52504602156247" id="textblock"><g><svg viewBox="0 0 208.52504602156247 191.55844122715712" height="191.55844122715712" width="208.52504602156247"><g transform="matrix(1,0,0,1,0,0)"><svg width="208.52504602156247" viewBox="0.6 -35 38.1 35" height="191.55844122715712" data-palette-color="#ffffff"><path d="M0.6 0L6.3-35 13.75-35 19.45 0 13.95 0 12.95-6.95 12.95-6.85 6.7-6.85 5.7 0 0.6 0ZM7.35-11.6L12.3-11.6 9.85-28.9 9.75-28.9 7.35-11.6ZM22.1 0L22.1-35 30.5-35Q34.6-35 36.65-32.8 38.7-30.6 38.7-26.35L38.7-26.35 38.7-8.65Q38.7-4.4 36.65-2.2 34.6 0 30.5 0L30.5 0 22.1 0ZM27.6-5L30.4-5Q31.75-5 32.47-5.8 33.2-6.6 33.2-8.4L33.2-8.4 33.2-26.6Q33.2-28.4 32.47-29.2 31.75-30 30.4-30L30.4-30 27.6-30 27.6-5Z" opacity="1" transform="matrix(1,0,0,1,0,0)" fill="#ffffff" class="wordmark-text-0" data-fill-palette-color="quaternary" id="text-0"></path></svg></g></svg></g></svg></g></svg></g><g></g></svg></g></svg></g></svg></g><defs></defs><mask id="74f7f63a-3b9a-4d01-8e7e-ea3bebaa1143"><g id="SvgjsG4898"><svg viewBox="0 0 336.29894817816745 336.29894817816745" height="336.29894817816745" width="336.29894817816745"><g><svg></svg></g><g><svg viewBox="0 0 336.29894817816745 336.29894817816745" height="336.29894817816745" width="336.29894817816745"><g><path d="M0 168.149c0-92.866 75.283-168.149 168.149-168.149 92.866 0 168.149 75.283 168.15 168.149 0 92.866-75.283 168.149-168.15 168.15-92.866 0-168.149-75.283-168.149-168.15zM168.149 319.024c83.326 0 150.875-67.549 150.875-150.875 0-83.326-67.549-150.875-150.875-150.874-83.326 0-150.875 67.549-150.874 150.874 0 83.326 67.549 150.875 150.874 150.875z" fill="white" stroke="transparent"></path><ellipse rx="161.42349512552036" ry="161.42349512552036" cx="168.14947408908372" cy="168.14947408908372" fill="white" stroke="transparent" stroke-width="0" fill-opacity="1"></ellipse></g><g transform="matrix(1,0,0,1,63.88695107830249,72.37025347550517)"><svg viewBox="0 0 208.52504602156247 191.55844122715712" height="191.55844122715712" width="208.52504602156247"><g><svg viewBox="0 0 208.52504602156247 191.55844122715712" height="191.55844122715712" width="208.52504602156247"><g><svg viewBox="0 0 208.52504602156247 191.55844122715712" height="191.55844122715712" width="208.52504602156247"><g id="SvgjsG4897"><svg viewBox="0 0 208.52504602156247 191.55844122715712" height="191.55844122715712" width="208.52504602156247" id="SvgjsSvg4896"><g><svg viewBox="0 0 208.52504602156247 191.55844122715712" height="191.55844122715712" width="208.52504602156247"><g transform="matrix(1,0,0,1,0,0)"><svg width="208.52504602156247" viewBox="0.6 -35 38.1 35" height="191.55844122715712" data-palette-color="#ffffff"><path d="M0.6 0L6.3-35 13.75-35 19.45 0 13.95 0 12.95-6.95 12.95-6.85 6.7-6.85 5.7 0 0.6 0ZM7.35-11.6L12.3-11.6 9.85-28.9 9.75-28.9 7.35-11.6ZM22.1 0L22.1-35 30.5-35Q34.6-35 36.65-32.8 38.7-30.6 38.7-26.35L38.7-26.35 38.7-8.65Q38.7-4.4 36.65-2.2 34.6 0 30.5 0L30.5 0 22.1 0ZM27.6-5L30.4-5Q31.75-5 32.47-5.8 33.2-6.6 33.2-8.4L33.2-8.4 33.2-26.6Q33.2-28.4 32.47-29.2 31.75-30 30.4-30L30.4-30 27.6-30 27.6-5Z" opacity="1" transform="matrix(1,0,0,1,0,0)" fill="black" class="wordmark-text-0" id="SvgjsPath4895"></path></svg></g></svg></g></svg></g></svg></g><g></g></svg></g></svg></g></svg></g><defs><mask></mask></defs></svg><rect width="336.29894817816745" height="336.29894817816745" fill="black" stroke="none" visibility="hidden"></rect></g></mask><linearGradient x1="0" x2="1" y1="0.5" y2="0.5" id="0ca58aaf-e82a-467e-b86b-eba840c78e7a"><stop stop-color="#f00b51" offset="0"></stop><stop stop-color="#730062" offset="1"></stop></linearGradient></svg><rect width="336.29894817816745" height="336.29894817816745" fill="none" stroke="none" visibility="hidden"></rect></g></svg></g></svg>